<?xml version="1.0" encoding="UTF-8"?>
<svg id="Layer_1" data-name="Layer 1" xmlns="http://www.w3.org/2000/svg" version="1.1" xmlns:xlink="http://www.w3.org/1999/xlink" viewBox="0 0 450 450">
  <defs>
    <style>
      .cls-1 {
        fill: #e5322b;
      }

      .cls-1, .cls-2, .cls-3, .cls-4, .cls-5, .cls-6, .cls-7, .cls-8, .cls-9, .cls-10, .cls-11, .cls-12, .cls-13 {
        stroke-width: 0px;
      }

      .cls-2 {
        fill: #231869;
      }

      .cls-3 {
        fill: #bfbeed;
      }

      .cls-4 {
        fill: #e5e3e8;
      }

      .cls-14 {
        clip-path: url(#clippath-2);
      }

      .cls-15 {
        isolation: isolate;
      }

      .cls-5 {
        fill: #2b5876;
      }

      .cls-6 {
        fill: none;
      }

      .cls-16 {
        clip-path: url(#clippath-1);
      }

      .cls-7 {
        fill: #dadaf9;
      }

      .cls-8 {
        fill: #fe4340;
      }

      .cls-17 {
        clip-path: url(#clippath);
      }

      .cls-9 {
        fill: #f4f4fa;
      }

      .cls-10 {
        fill: #f9f7fc;
      }

      .cls-11 {
        fill: #19121b;
      }

      .cls-12 {
        fill: #57419a;
      }

      .cls-13 {
        fill: #4e4376;
      }
    </style>
    <clipPath id="clippath">
      <path class="cls-6" d="M156.4,160.3l45.7-26.6c1.1-.6,2.7-.6,4.4.4l-45.7,26.6c-1.7-1-3.2-1.1-4.4-.4Z"/>
    </clipPath>
    <clipPath id="clippath-1">
      <path class="cls-6" d="M332.1,341.1l-45.7,26.6c8.5-4.9,13.8-15.4,13.8-30.3l45.7-26.6c0,14.9-5.3,25.3-13.8,30.3Z"/>
    </clipPath>
    <clipPath id="clippath-2">
      <path class="cls-6" d="M294.4,237.8l45.7-26.6c3.4,2,6.1,6.7,6.1,10.6l-45.7,26.6c0-3.9-2.7-8.6-6.1-10.6Z"/>
    </clipPath>
  </defs>
  <g>
    <g>
      <g class="cls-15">
        <g class="cls-15">
          <path class="cls-8" d="M156.4,160.3l45.7-26.6c1.1-.6,2.7-.6,4.4.4l-45.7,26.6c-1.7-1-3.2-1.1-4.4-.4Z"/>
          <g class="cls-17">
            <g class="cls-15">
              <path class="cls-13" d="M156.4,160.3l45.7-26.6c1.1-.6,2.6-.6,4.3.4l-45.7,26.6c-1.7-.9-3.2-1-4.3-.4Z"/>
              <path class="cls-13" d="M160.7,160.7l45.7-26.6s0,0,0,0l-45.7,26.6s0,0,0,0Z"/>
            </g>
          </g>
        </g>
        <g class="cls-15">
          <path class="cls-1" d="M332.1,341.1l-45.7,26.6c8.5-4.9,13.8-15.4,13.8-30.3l45.7-26.6c0,14.9-5.3,25.3-13.8,30.3Z"/>
          <g class="cls-16">
            <g class="cls-15">
              <path class="cls-5" d="M300.2,337.5l45.7-26.6c0,14.9-5.3,25.3-13.8,30.3l-45.7,26.6c8.5-4.9,13.8-15.4,13.8-30.3Z"/>
            </g>
          </g>
        </g>
        <polygon class="cls-5" points="300.5 248.4 346.2 221.9 345.9 310.9 300.2 337.5 300.5 248.4"/>
        <polygon class="cls-12" points="160.8 160.7 206.5 134.1 340 211.2 294.4 237.8 160.8 160.7"/>
        <g class="cls-15">
          <path class="cls-8" d="M294.4,237.8l45.7-26.6c3.4,2,6.1,6.7,6.1,10.6l-45.7,26.6c0-3.9-2.7-8.6-6.1-10.6Z"/>
          <g class="cls-14">
            <g class="cls-15">
              <path class="cls-13" d="M294.4,237.8l45.7-26.6c.7.4,1.4,1,2.1,1.6l-45.7,26.6c-.6-.6-1.4-1.2-2.1-1.6h0Z"/>
              <path class="cls-13" d="M296.4,239.4l45.7-26.6c2.4,2.4,4,5.9,4,9l-45.7,26.6c0-3.1-1.7-6.6-4-9h0Z"/>
            </g>
          </g>
        </g>
        <path class="cls-13" d="M294.4,237.8c3.4,2,6.1,6.7,6.1,10.6l-.2,89c0,29.9-21.4,42.1-47.4,27l-51.2-29.6c-26-15-47.2-51.8-47.1-81.7l.2-89c0-3.9,2.8-5.5,6.2-3.5l133.5,77.1Z"/>
      </g>
      <path class="cls-5" d="M202.7,159.4c-5.7,3.3-15.1,3.3-20.8,0s-5.7-8.7,0-12c5.7-3.3,15.1-3.3,20.8,0s5.7,8.7,0,12Z"/>
      <path class="cls-5" d="M314.6,223.7c-5.7,3.3-15.1,3.3-20.8,0s-5.7-8.7,0-12,15.1-3.3,20.8,0,5.7,8.7,0,12Z"/>
      <g>
        <path class="cls-7" d="M178.7,95.9l.2,56.7c0,2,1.3,3.9,3.9,5.4,5.2,3,13.5,3,18.7,0,2.6-1.5,3.9-3.5,3.9-5.5l-.2-56.7c0-9.9,2.7-17.2,7.6-20,4.9-2.8,12.6-1.7,21.2,3.3l14.6,8.3c22.9,13.1,42.3,46.4,42.4,72.8l.2,56.7c0,2,1.3,3.9,3.9,5.4,3.3,1.9,8,2.6,12.2,2,2.4-.3,4.6-1,6.5-2.1.7-.4,1.3-.9,1.8-1.3,1.4-1.3,2.1-2.7,2-4.2l-.2-56.7c0-17.2-5.9-36.6-16.3-54.5-10.4-17.9-24.4-32.5-39.4-41.1l-14.6-8.4c-8.2-4.7-16.5-7.5-24.4-8.1-8.4-.7-16.5,1-23.2,5-6.8,3.9-12.2,10.1-15.8,17.8-3.4,7.2-5,15.7-5,25.2h0Z"/>
        <path class="cls-3" d="M205.5,78.9c1.5-.9,3.2-1.3,5.2-1.5-3.6,3.5-5.6,10-5.5,18.4l.2,56.7c0,2-1.3,4-3.9,5.5-1,.6-2.2,1.1-3.4,1.4l-.2-60.5c0-9.9,2.7-17.2,7.6-20h0Z"/>
        <path class="cls-9" d="M197.7,56.3c4.6-1.3,9.6-1.8,14.7-1.3,7.9.7,16.2,3.4,24.4,8.1l14.6,8.4c15,8.6,29,23.2,39.4,41.1s16.2,37.3,16.3,54.5l.2,57.3c2.4-.3,4.6-1,6.5-2.1.7-.4,1.3-.9,1.8-1.3l-.2-57.4c0-17.2-5.9-36.6-16.3-54.5-10.4-17.9-24.4-32.5-39.4-41.1l-14.6-8.4c-8.2-4.7-16.5-7.5-24.4-8.1-8.3-.7-16.2,1-22.9,4.8h0Z"/>
      </g>
      <path class="cls-11" d="M209.8,256.4c0-7.6,5.3-10.7,11.9-6.9,6.6,3.8,11.9,13,12,20.6,0,5-2.3,8-5.8,8.5v21.6c0,0-12.2-7-12.2-7v-21.6c-3.6-4.4-5.9-10.1-5.9-15.1h0Z"/>
    </g>
    <g>
      <g class="cls-15">
        <polygon class="cls-4" points="249.4 172.8 251.9 171.4 251.8 202.2 249.4 203.6 249.4 172.8"/>
        <polygon class="cls-4" points="139.4 109.2 141.8 107.8 251.9 171.4 249.4 172.8 139.4 109.2"/>
        <polygon class="cls-10" points="249.4 172.8 249.4 203.6 139.3 140 139.4 109.2 249.4 172.8"/>
      </g>
      <path class="cls-2" d="M156.1,134.6l-4.1-2.4c2.4.7,4.2-.7,4.2-3.7s-2.4-7.7-5.4-9.4-5.4-.3-5.4,3.1,1.8,6.5,4.2,8.5l-4.1-2.4c-1.6-.9-2.9-.2-2.9,1.7v7.8l16.5,9.5v-7.8c0-1.8-1.3-4.1-2.9-5h0Z"/>
    </g>
    <g>
      <g class="cls-15">
        <polygon class="cls-4" points="214 210.4 216.4 209 216.3 239.8 213.9 241.2 214 210.4"/>
        <polygon class="cls-4" points="103.9 146.8 106.3 145.4 216.4 209 214 210.4 103.9 146.8"/>
        <polygon class="cls-10" points="214 210.4 213.9 241.2 103.8 177.6 103.9 146.8 214 210.4"/>
      </g>
      <g>
        <path class="cls-2" d="M110.9,163.5l4.5,1.9.2,3.6-4.7-2.9s0-2.6,0-2.6ZM113.3,167.9l3,2.6-1.6,4.2-2.2-2.1.8-4.7ZM117.3,163.1l2,5.9-2.9-.4-1.3-6,2.2.4h0ZM117.4,171l3.7,5.5-1.4,1.3-4-4.8,1.7-2ZM121.4,169l1.3,2.9-3.3,1.8-1.9-3.9,3.9-.8h0Z"/>
        <path class="cls-2" d="M124.6,171.4l4.5,1.9.2,3.6-4.7-2.9v-2.6h0ZM126.9,175.8l3,2.6-1.6,4.2-2.2-2.1s.8-4.7.8-4.7ZM131,171l2,5.9-2.9-.4-1.3-6,2.2.4h0ZM131.1,178.8l3.7,5.5-1.4,1.3-4-4.8,1.7-2ZM135.1,176.8l1.3,2.9-3.3,1.8-1.9-3.9,3.9-.8h0Z"/>
        <path class="cls-2" d="M138.2,179.3l4.5,1.9.2,3.6-4.7-2.9v-2.6ZM140.6,183.7l3,2.6-1.6,4.2-2.2-2.1.8-4.7ZM144.6,178.9l2,5.9-2.9-.4-1.3-6,2.2.4h0ZM144.7,186.7l3.7,5.5-1.4,1.3-4-4.8,1.7-2ZM148.7,184.7l1.3,2.9-3.3,1.8-1.9-3.9,3.9-.8h0Z"/>
        <path class="cls-2" d="M151.9,187.2l4.5,1.9.2,3.6-4.7-2.9v-2.6ZM154.3,191.6l3,2.6-1.6,4.2-2.2-2.1.8-4.7ZM158.3,186.8l2,5.9-2.9-.4-1.3-6,2.2.4h0ZM158.4,194.6l3.7,5.5-1.4,1.3-4-4.8,1.7-2ZM162.4,192.6l1.3,2.9-3.3,1.8-1.9-3.9,3.9-.8h0Z"/>
        <path class="cls-2" d="M165.5,195.1l4.5,1.9.2,3.6-4.7-2.9v-2.6ZM167.9,199.4l3,2.6-1.6,4.2-2.2-2.1.8-4.7ZM171.9,194.7l2,5.9-2.9-.4-1.3-6,2.2.4h0ZM172,202.5l3.7,5.5-1.4,1.3-4-4.8,1.7-2ZM176,200.5l1.3,2.9-3.3,1.8-1.9-3.9,3.9-.8h0Z"/>
        <path class="cls-2" d="M179.2,202.9l4.5,1.9.2,3.6-4.7-2.9v-2.6ZM181.6,207.3l3,2.6-1.6,4.2-2.2-2.1.8-4.7ZM185.6,202.6l2,5.9-2.9-.4-1.3-6,2.2.4h0ZM185.7,210.4l3.7,5.5-1.4,1.3-4-4.8,1.7-2ZM189.7,208.4l1.3,2.9-3.3,1.8-1.9-3.9,3.9-.8h0Z"/>
      </g>
    </g>
  </g>
  <g>
    <path class="cls-5" d="M48.7,398.9c1.8,0,3.4.3,4.6.9,1.3.6,2.2,1.5,2.9,2.6s1,2.4,1,4-.1,1.8-.4,2.7c-.3.9-.7,1.7-1.3,2.5-.6.7-1.4,1.3-2.4,1.8-1,.5-2.2.7-3.6.7h-3.1v7h-4.3v-22.1h6.7,0ZM49.5,409.8c.7,0,1.2-.1,1.7-.4.4-.2.8-.5,1-.9.2-.4.4-.7.5-1.1.1-.4.2-.7.2-1s0-.5-.1-.9c0-.4-.2-.7-.4-1.1s-.6-.7-1-1c-.5-.3-1-.4-1.8-.4h-3.1v6.7h3.1,0Z"/>
    <path class="cls-5" d="M56.4,421l10-23h.2l10,23h-5l-6.4-16.1,3.2-2.2-7.6,18.3h-4.3ZM63.2,413h6.6l1.5,3.7h-9.5s1.3-3.7,1.4-3.7Z"/>
    <path class="cls-5" d="M91.5,404.3c-.8-.5-1.7-.8-2.6-1.1s-1.7-.5-2.4-.5-1.7.2-2.2.6-.8,1-.8,1.7.2,1,.6,1.4c.4.4.9.8,1.6,1.1.7.3,1.3.6,2,.9.6.2,1.3.5,1.9.9s1.2.7,1.7,1.2c.5.5.9,1.1,1.2,1.8.3.7.4,1.6.4,2.7s-.3,2.2-.9,3.1-1.4,1.7-2.6,2.3-2.5.9-4.1.9-1.7,0-2.6-.2c-.9-.2-1.7-.4-2.6-.8s-1.7-.8-2.4-1.3l1.9-3.4c.5.4,1.1.7,1.7,1s1.2.5,1.8.7,1.2.2,1.7.2,1,0,1.6-.2c.5-.1,1-.4,1.3-.8.3-.4.5-.9.5-1.5s-.1-.8-.4-1.2-.7-.7-1.2-1-1-.6-1.6-.8c-.7-.3-1.4-.6-2.1-.9s-1.4-.8-2-1.2c-.6-.5-1.1-1.1-1.5-1.8-.4-.7-.6-1.6-.6-2.7s.3-2.4.8-3.3,1.4-1.7,2.4-2.2c1-.5,2.2-.9,3.6-.9,1.8,0,3.2.2,4.3.6s2.1.9,3,1.5l-1.7,3.3h0Z"/>
    <path class="cls-5" d="M109,404.3c-.8-.5-1.7-.8-2.6-1.1s-1.7-.5-2.4-.5-1.7.2-2.2.6-.8,1-.8,1.7.2,1,.6,1.4c.4.4.9.8,1.6,1.1.7.3,1.3.6,2,.9.6.2,1.3.5,1.9.9s1.2.7,1.7,1.2c.5.5.9,1.1,1.2,1.8.3.7.4,1.6.4,2.7s-.3,2.2-.9,3.1-1.4,1.7-2.6,2.3-2.5.9-4.1.9-1.7,0-2.6-.2c-.9-.2-1.7-.4-2.6-.8s-1.7-.8-2.4-1.3l1.9-3.4c.5.4,1.1.7,1.7,1s1.2.5,1.8.7,1.2.2,1.7.2,1,0,1.6-.2c.5-.1,1-.4,1.3-.8.3-.4.5-.9.5-1.5s-.1-.8-.4-1.2-.7-.7-1.2-1-1-.6-1.6-.8c-.7-.3-1.4-.6-2.1-.9s-1.4-.8-2-1.2c-.6-.5-1.1-1.1-1.5-1.8-.4-.7-.6-1.6-.6-2.7s.3-2.4.8-3.3,1.4-1.7,2.4-2.2c1-.5,2.2-.9,3.6-.9,1.8,0,3.2.2,4.3.6s2.1.9,3,1.5l-1.7,3.3h0Z"/>
    <path class="cls-5" d="M112.8,399.1h5.1l4.7,13.9-.7-.3,4.1-10.2,2,6-6.4,13.6-8.9-23h0ZM123.9,399.1h4.3l5.4,13.4h-.8c0-.1,4.1-13.4,4.1-13.4h4.7l-8.5,22.9-9.2-22.9h0Z"/>
    <path class="cls-5" d="M142.3,410c0-1.5.3-3,.9-4.3.6-1.4,1.4-2.6,2.4-3.6,1-1,2.2-1.9,3.6-2.5s2.8-.9,4.4-.9,3,.3,4.4.9,2.6,1.4,3.6,2.5,1.9,2.3,2.5,3.6c.6,1.4.9,2.8.9,4.3s-.3,3-.9,4.4-1.4,2.5-2.5,3.6-2.2,1.8-3.6,2.4c-1.4.6-2.8.9-4.4.9s-3-.3-4.4-.9-2.6-1.4-3.6-2.4-1.8-2.2-2.4-3.6-.9-2.8-.9-4.4ZM146.8,410c0,1,.2,1.9.5,2.8.4.9.8,1.6,1.5,2.2s1.4,1.1,2.2,1.5c.8.4,1.7.5,2.7.5s1.8-.2,2.6-.5c.8-.4,1.5-.9,2.1-1.5.6-.6,1.1-1.4,1.4-2.2s.5-1.8.5-2.8-.2-1.9-.5-2.8-.8-1.6-1.4-2.3-1.3-1.1-2.1-1.5-1.7-.5-2.7-.5-1.9.2-2.7.5c-.8.4-1.5.9-2.2,1.5-.6.6-1.1,1.4-1.4,2.3s-.5,1.8-.5,2.8h0Z"/>
    <path class="cls-5" d="M175.9,398.9c1.4,0,2.6.2,3.7.5s2,.9,2.7,1.5c.7.6,1.3,1.4,1.7,2.3s.6,1.9.6,3.1-.1,1.8-.4,2.7c-.3.9-.7,1.7-1.3,2.5s-1.4,1.3-2.4,1.8-2.2.7-3.7.7h-3.1v7h-4.4v-22.1h6.7ZM176.6,409.8c.7,0,1.2-.1,1.6-.3.4-.2.8-.5,1-.8s.4-.7.5-1.1.2-.7.2-1,0-.5-.1-.9c0-.4-.2-.7-.4-1.1s-.6-.7-1-1c-.4-.3-1.1-.4-1.8-.4h-3.1v6.7h3.1,0ZM180.7,412.5l5.5,8.5h-5.1l-5.6-8.4h5.2Z"/>
    <path class="cls-5" d="M189.8,421v-22.1h6.6c2.2,0,4.1.3,5.7,1s2.8,1.5,3.8,2.6,1.6,2.3,2.1,3.7c.4,1.4.7,2.7.7,4.1s-.3,3.1-.9,4.4c-.6,1.3-1.4,2.4-2.4,3.4s-2.2,1.6-3.5,2.1-2.8.7-4.3.7h-7.7,0ZM194.1,416.8h2.6c1.1,0,2.1-.1,3-.4.9-.3,1.7-.7,2.3-1.3.6-.6,1.1-1.3,1.5-2.1.4-.9.5-1.8.5-2.9s-.2-2.6-.7-3.5-1.1-1.6-1.7-2.1-1.4-.8-2.1-1c-.7-.2-1.3-.3-1.8-.3h-3.5v13.7h0Z"/>
    <path class="cls-5" d="M240.5,418.8c-.3.3-.7.6-1.2.9-.6.3-1.2.6-1.9.8-.7.2-1.5.4-2.2.6-.8.1-1.5.2-2.2.2-1.8,0-3.4-.3-4.9-.8s-2.7-1.3-3.7-2.2-1.8-2.1-2.3-3.4c-.5-1.3-.8-2.7-.8-4.3s.3-3.8.9-5.3c.6-1.5,1.4-2.7,2.5-3.7s2.3-1.7,3.6-2.2c1.4-.5,2.8-.7,4.3-.7s2.7.2,3.9.5c1.2.3,2.2.7,3,1.2l-1.4,4c-.4-.2-.8-.4-1.4-.6s-1.2-.4-1.8-.5c-.6-.1-1.2-.2-1.6-.2-1.2,0-2.3.1-3.2.5s-1.7.8-2.3,1.4c-.6.6-1.1,1.3-1.4,2.2-.3.9-.5,1.9-.5,3.1s.2,2,.5,2.8c.4.8.9,1.5,1.5,2.1s1.4,1,2.3,1.3c.9.3,1.9.5,2.9.5s1.2,0,1.7-.1,1-.2,1.3-.4v-2.7h-3.8v-4.2h8.2v9.3h0Z"/>
    <path class="cls-5" d="M245.5,398.9h15.1v4.2h-10.7v4.7h9.5v4.2h-9.5v4.8h11.1v4.2h-15.5v-22.1h0Z"/>
    <path class="cls-5" d="M285.2,421.9l-16.7-15.1,1.3.7v13.5c0,0-4.3,0-4.3,0v-23h.2l16.4,15.1-1-.4v-13.8c0,0,4.3,0,4.3,0v23h-.1Z"/>
    <path class="cls-5" d="M291.1,398.9h15.1v4.2h-10.7v4.7h9.5v4.2h-9.5v4.8h11.1v4.2h-15.5v-22.1h0Z"/>
    <path class="cls-5" d="M317.7,398.9c1.4,0,2.6.2,3.7.5s2,.9,2.7,1.5c.7.6,1.3,1.4,1.7,2.3s.6,1.9.6,3.1-.1,1.8-.4,2.7c-.3.9-.7,1.7-1.3,2.5-.6.7-1.4,1.3-2.4,1.8s-2.2.7-3.7.7h-3.1v7h-4.4v-22.1h6.7ZM318.5,409.8c.7,0,1.2-.1,1.6-.3s.8-.5,1-.8.4-.7.5-1.1c.1-.4.2-.7.2-1s0-.5-.1-.9c0-.4-.2-.7-.4-1.1s-.5-.7-1-1c-.5-.3-1-.4-1.8-.4h-3.1v6.7h3.1,0ZM322.6,412.5l5.5,8.5h-5.1l-5.6-8.4h5.2Z"/>
    <path class="cls-5" d="M329.1,421l10-23h.2l10,23h-5l-6.4-16.1,3.1-2.2-7.6,18.3h-4.3,0ZM335.9,413h6.6l1.5,3.7h-9.5l1.4-3.7Z"/>
    <path class="cls-5" d="M349.2,398.9h14.9v4.2h-5.4v17.9h-4.4v-17.9h-5.2v-4.2Z"/>
    <path class="cls-5" d="M366.2,410c0-1.5.3-3,.9-4.3.6-1.4,1.4-2.6,2.4-3.6,1-1,2.2-1.9,3.6-2.5s2.8-.9,4.4-.9,3,.3,4.4.9c1.4.6,2.6,1.4,3.6,2.5s1.9,2.3,2.5,3.6.9,2.8.9,4.3-.3,3-.9,4.4-1.4,2.5-2.5,3.6-2.2,1.8-3.6,2.4c-1.4.6-2.8.9-4.4.9s-3-.3-4.4-.9-2.5-1.4-3.6-2.4-1.8-2.2-2.4-3.6-.9-2.8-.9-4.4ZM370.7,410c0,1,.2,1.9.5,2.8.4.9.8,1.6,1.5,2.2s1.4,1.1,2.2,1.5c.8.4,1.7.5,2.7.5s1.8-.2,2.6-.5c.8-.4,1.5-.9,2.1-1.5.6-.6,1.1-1.4,1.4-2.2s.5-1.8.5-2.8-.2-1.9-.5-2.8-.8-1.6-1.4-2.3c-.6-.6-1.3-1.1-2.1-1.5s-1.7-.5-2.7-.5-1.9.2-2.7.5c-.8.4-1.5.9-2.2,1.5-.6.6-1.1,1.4-1.4,2.3s-.5,1.8-.5,2.8h0Z"/>
    <path class="cls-5" d="M399.8,398.9c1.4,0,2.6.2,3.7.5s2,.9,2.7,1.5,1.3,1.4,1.7,2.3c.4.9.6,1.9.6,3.1s-.1,1.8-.4,2.7c-.3.9-.7,1.7-1.3,2.5-.6.7-1.4,1.3-2.4,1.8s-2.2.7-3.7.7h-3.1v7h-4.4v-22.1h6.7,0ZM400.5,409.8c.7,0,1.2-.1,1.6-.3s.8-.5,1-.8.4-.7.5-1.1c.1-.4.2-.7.2-1s0-.5-.1-.9c0-.4-.2-.7-.4-1.1s-.5-.7-1-1c-.5-.3-1-.4-1.8-.4h-3.1v6.7h3.1,0ZM404.6,412.5l5.5,8.5h-5.1l-5.6-8.4h5.2Z"/>
  </g>
</svg>